<?xml version="1.0" encoding="UTF-8" standalone="no"?>
<!-- Created with Inkscape (http://www.inkscape.org/) -->

<svg
   xmlns:dc="http://purl.org/dc/elements/1.1/"
   xmlns:cc="http://creativecommons.org/ns#"
   xmlns:rdf="http://www.w3.org/1999/02/22-rdf-syntax-ns#"
   xmlns:svg="http://www.w3.org/2000/svg"
   xmlns="http://www.w3.org/2000/svg"
   xmlns:xlink="http://www.w3.org/1999/xlink"
   xmlns:sodipodi="http://sodipodi.sourceforge.net/DTD/sodipodi-0.dtd"
   xmlns:inkscape="http://www.inkscape.org/namespaces/inkscape"
   id="svg249"
   sodipodi:version="0.32"
   height="48"
   width="48"
   version="1.0"
   sodipodi:docname="about.svg"
   inkscape:version="0.92.4 (5da689c313, 2019-01-14)"
   inkscape:export-filename="C:\Dvp\QGIS_PLUGINS\qgis-python-tools\icon.png"
   inkscape:export-xdpi="128"
   inkscape:export-ydpi="128">
  <defs
     id="defs3">
    <radialGradient
       id="radialGradient24190"
       gradientUnits="userSpaceOnUse"
       cy="63.965"
       cx="15.116"
       gradientTransform="scale(1.644,0.60828)"
       r="12.289">
      <stop
         id="stop4116"
         offset="0" />
      <stop
         id="stop4118"
         stop-opacity="0"
         offset="1" />
    </radialGradient>
    <linearGradient
       id="linearGradient8166"
       y2="38.07"
       gradientUnits="userSpaceOnUse"
       x2="34.17"
       gradientTransform="matrix(-.032779 -.99946 .99946 -.032779 -.70965 45.063)"
       y1="36.921"
       x1="33.396">
      <stop
         id="stop2253"
         stop-color="#fff"
         offset="0" />
      <stop
         id="stop2255"
         stop-color="#fff"
         stop-opacity="0"
         offset="1" />
    </linearGradient>
    <linearGradient
       id="linearGradient269">
      <stop
         id="stop270"
         stop-color="#a3a3a3"
         offset="0" />
      <stop
         id="stop271"
         stop-color="#8a8a8a"
         offset="1" />
    </linearGradient>
    <linearGradient
       id="linearGradient259">
      <stop
         id="stop260"
         stop-color="#fafafa"
         offset="0" />
      <stop
         id="stop261"
         stop-color="#bbb"
         offset="1" />
    </linearGradient>
    <radialGradient
       id="radialGradient15656"
       xlink:href="#linearGradient269"
       gradientUnits="userSpaceOnUse"
       cy="3.7561"
       cx="8.8244"
       gradientTransform="matrix(.96827 0 0 1.0328 3.3536 .64645)"
       r="37.752" />
    <radialGradient
       id="radialGradient15658"
       xlink:href="#linearGradient259"
       gradientUnits="userSpaceOnUse"
       cy="35.737"
       cx="33.967"
       gradientTransform="scale(.96049 1.0411)"
       r="86.708" />
    <radialGradient
       id="radialGradient15668"
       gradientUnits="userSpaceOnUse"
       cy="7.2679"
       cx="8.1436"
       gradientTransform="matrix(.96827 0 0 1.0328 3.3536 .64645)"
       r="38.159">
      <stop
         id="stop15664"
         stop-color="#fff"
         offset="0" />
      <stop
         id="stop15666"
         stop-color="#f8f8f8"
         offset="1" />
    </radialGradient>
    <radialGradient
       id="radialGradient5350"
       xlink:href="#linearGradient269"
       gradientUnits="userSpaceOnUse"
       cy="2.3667"
       cx="31.863"
       gradientTransform="matrix(.33174 -2.3449e-17 2.5011e-17 .35383 20.105 9.5823)"
       r="37.752" />
    <radialGradient
       id="radialGradient5352"
       xlink:href="#linearGradient259"
       gradientUnits="userSpaceOnUse"
       cy="14.937"
       cx="30.654"
       gradientTransform="matrix(.14836 .010091 -.011044 .16236 25.06 12.817)"
       r="86.708" />
    <radialGradient
       id="radialGradient4796"
       gradientUnits="userSpaceOnUse"
       cy="12.989"
       cx="37.03"
       gradientTransform="matrix(1.7447 2.3136e-22 -1.663e-22 1.2838 -26.583 -3.4784)"
       r="4.2929">
      <stop
         id="stop4792"
         offset="0" />
      <stop
         id="stop4794"
         stop-opacity="0"
         offset="1" />
    </radialGradient>
    <linearGradient
       id="linearGradient3688">
      <stop
         id="stop3690"
         offset="0" />
      <stop
         id="stop3692"
         stop-opacity="0"
         offset="1" />
    </linearGradient>
    <radialGradient
       id="radialGradient2088"
       xlink:href="#linearGradient3688"
       gradientUnits="userSpaceOnUse"
       cy="43.5"
       cx="4.993"
       gradientTransform="matrix(2.0038 0 0 1.4 27.988 -17.4)"
       r="2.5" />
    <radialGradient
       id="radialGradient2090"
       xlink:href="#linearGradient3688"
       gradientUnits="userSpaceOnUse"
       cy="43.5"
       cx="4.993"
       gradientTransform="matrix(2.0038 0 0 1.4 -20.012 -104.4)"
       r="2.5" />
    <linearGradient
       id="linearGradient2092"
       y2="39.999"
       gradientUnits="userSpaceOnUse"
       x2="25.058"
       y1="47.028"
       x1="25.058">
      <stop
         id="stop3704"
         stop-opacity="0"
         offset="0" />
      <stop
         id="stop3710"
         offset=".5" />
      <stop
         id="stop3706"
         stop-opacity="0"
         offset="1" />
    </linearGradient>
  </defs>
  <sodipodi:namedview
     id="base"
     bordercolor="#666666"
     pagecolor="#ffffff"
     showgrid="false"
     borderopacity="1"
     showborder="false"
     inkscape:zoom="1.7383042"
     inkscape:cx="-172.10463"
     inkscape:cy="117.67674"
     inkscape:window-width="1920"
     inkscape:window-height="1017"
     inkscape:window-x="1912"
     inkscape:window-y="-8"
     inkscape:window-maximized="1"
     inkscape:current-layer="svg249" />
  <metadata
     id="metadata4">
    <rdf:RDF>
      <cc:Work
         rdf:about="">
        <dc:format>image/svg+xml</dc:format>
        <dc:type
           rdf:resource="http://purl.org/dc/dcmitype/StillImage" />
        <dc:title></dc:title>
        <dc:subject>
          <rdf:Bag>
            <rdf:li>Python</rdf:li>
            <rdf:li>script</rdf:li>
            <rdf:li>programing language</rdf:li>
          </rdf:Bag>
        </dc:subject>
        <cc:license
           rdf:resource="http://creativecommons.org/licenses/GPL/2.0/" />
        <dc:creator>
          <cc:Agent>
            <dc:title>Vinicius Depizzol</dc:title>
          </cc:Agent>
        </dc:creator>
        <dc:source>vdepizzol@gmail.com</dc:source>
        <dc:contributor>
          <cc:Agent>
            <dc:title>Paper sheet by Jakub Steiner &lt;http://jimmac.musichall.cz&gt;</dc:title>
          </cc:Agent>
        </dc:contributor>
        <dc:date>2007-02-16</dc:date>
      </cc:Work>
      <cc:License
         rdf:about="http://creativecommons.org/licenses/GPL/2.0/">
        <cc:permits
           rdf:resource="http://web.resource.org/cc/Reproduction" />
        <cc:permits
           rdf:resource="http://web.resource.org/cc/Distribution" />
        <cc:requires
           rdf:resource="http://web.resource.org/cc/Notice" />
        <cc:permits
           rdf:resource="http://web.resource.org/cc/DerivativeWorks" />
        <cc:requires
           rdf:resource="http://web.resource.org/cc/ShareAlike" />
        <cc:requires
           rdf:resource="http://web.resource.org/cc/SourceCode" />
      </cc:License>
    </rdf:RDF>
  </metadata>
  <g
     id="layer6">
    <g
       id="g2033">
      <g
         id="g3712"
         opacity=".4"
         transform="matrix(1.0526 0 0 1.2857 -1.2632 -13.429)">
        <rect
           id="rect2801"
           opacity="1"
           height="7"
           width="5"
           y="40"
           x="38"
           fill="url(#radialGradient2088)" />
        <rect
           id="rect3696"
           opacity="1"
           transform="scale(-1)"
           height="7"
           width="5"
           y="-47"
           x="-10"
           fill="url(#radialGradient2090)" />
        <rect
           id="rect3700"
           opacity="1"
           height="7"
           width="28"
           y="40"
           x="10"
           fill="url(#linearGradient2092)" />
      </g>
    </g>
  </g>
  <g
     id="layer1"
     stroke-linejoin="round"
     stroke-linecap="round">
    <path
       id="rect15391"
       style="color:#000000"
       d="m7.7526 3.6464l23.447-0.0156s10.279 9.5442 10.279 10.18v29.607c0 0.636-0.513 1.149-1.149 1.149h-32.577c-0.637 0-1.1494-0.513-1.1494-1.149v-38.622c0-0.6371 0.5124-1.1496 1.149-1.1496z"
       sodipodi:nodetypes="ccccccccc"
       display="block"
       stroke="url(#radialGradient15656)"
       fill="url(#radialGradient15658)" />
    <path
       id="rect15660"
       style="color:#000000"
       d="m7.8151 4.5839h24.876s7.751 8.0211 7.751 8.1041v30.693c0 0.083-0.067 0.149-0.149 0.149h-32.478c-0.0825 0-0.1489-0.066-0.1489-0.149v-38.648c0-0.0826 0.0664-0.1491 0.149-0.1491z"
       sodipodi:nodetypes="ccccccccc"
       display="block"
       stroke="url(#radialGradient15668)"
       fill="none" />
  </g>
  <g
     id="layer5">
    <path
       id="path5348"
       opacity=".35714"
       style="color:#000000"
       fill-rule="evenodd"
       sodipodi:nodetypes="cccc"
       fill="url(#radialGradient4796)"
       d="m40.985 13.861c-0.728-1.346-6.103-3.73-8.9-4.5296 0.169 1.5726-0.123 6.3176-0.123 6.3176 2.062-1.375 8.242-1.95 9.023-1.788z" />
    <path
       id="path2210"
       stroke-linejoin="round"
       sodipodi:nodetypes="cccc"
       stroke="url(#radialGradient5350)"
       fill="url(#radialGradient5352)"
       style="color:#000000"
       d="m41.411 13.739c0.013-1.415-6.353-10.207-10.236-10.104 0.973 0.2335 1.751 6.1685 0.361 8.981 2.75 0 8.911-0.735 9.875 1.123z"
       display="block" />
    <path
       id="path2247"
       style="color:#000000"
       fill="none"
       sodipodi:nodetypes="cccc"
       stroke="url(#linearGradient8166)"
       d="m39.122 11.586c-0.729-1.346-4.159-5.0693-6.082-6.3064 0.239 1.4259 0.537 3.6825-0.078 6.2444 0 0 5.379-0.1 6.16 0.062z" />
    <g
       id="g5535"
       fill-rule="evenodd"
       transform="translate(60)"
       fill="#8d8d8d">
      <rect
         id="rect4819"
         opacity=".51099"
         style="color:#000000"
         rx=".46875"
         ry=".46875"
         height=".9375"
         width="16.772"
         y="9.0625"
         x="-49" />
      <rect
         id="rect4821"
         opacity=".51099"
         style="color:#000000"
         rx=".46875"
         ry=".46875"
         height=".9375"
         width="16.772"
         y="11.062"
         x="-49" />
      <rect
         id="rect4823"
         opacity=".51099"
         style="color:#000000"
         rx=".46875"
         ry=".46875"
         height=".9375"
         width="16.772"
         y="13"
         x="-49" />
      <rect
         id="rect4825"
         opacity=".51099"
         style="color:#000000"
         rx=".46875"
         ry=".46875"
         height=".9375"
         width="16.772"
         y="15.125"
         x="-49" />
      <rect
         id="rect4827"
         opacity=".51099"
         style="color:#000000"
         rx=".46875"
         ry=".46875"
         height=".9375"
         width="26.125"
         y="19.062"
         x="-49" />
      <rect
         id="rect4831"
         opacity=".51099"
         style="color:#000000"
         rx=".46875"
         ry=".46875"
         height=".9375"
         width="26.125"
         y="21.062"
         x="-49" />
      <rect
         id="rect4833"
         opacity=".51099"
         style="color:#000000"
         rx=".46875"
         ry=".46875"
         height=".9375"
         width="26.125"
         y="23.062"
         x="-49" />
      <rect
         id="rect4835"
         opacity=".51099"
         style="color:#000000"
         rx=".46875"
         ry=".46875"
         height=".9375"
         width="26.125"
         y="25.062"
         x="-49" />
      <rect
         id="rect4837"
         opacity=".51099"
         style="color:#000000"
         rx=".46875"
         ry=".46875"
         height=".9375"
         width="26.125"
         y="27.062"
         x="-49" />
      <rect
         id="rect4839"
         opacity=".51099"
         style="color:#000000"
         rx=".46875"
         ry=".46875"
         height=".9375"
         width="26.125"
         y="29.062"
         x="-49" />
      <rect
         id="rect4841"
         opacity=".51099"
         style="color:#000000"
         rx=".46875"
         ry=".46875"
         height=".9375"
         width="26.125"
         y="31.062"
         x="-49" />
      <rect
         id="rect4843"
         opacity=".51099"
         style="color:#000000"
         rx=".46875"
         ry=".46875"
         height=".9375"
         width="26.125"
         y="33.062"
         x="-49" />
      <rect
         id="rect4845"
         opacity=".51099"
         style="color:#000000"
         rx=".46875"
         ry=".46875"
         height=".9375"
         width="26.125"
         y="35.062"
         x="-49" />
      <rect
         id="rect4849"
         opacity=".51099"
         style="color:#000000"
         rx=".46875"
         ry=".46875"
         height=".9375"
         width="12.83"
         y="37.062"
         x="-49" />
      <rect
         id="rect5533"
         opacity=".51099"
         style="color:#000000"
         rx=".46875"
         ry=".46875"
         height=".9375"
         width="26.125"
         y="17.062"
         x="-49" />
    </g>
  </g>
  <g
     id="layer2"
     transform="matrix(1.4937927,0,0,1.4937927,-25.06724,-24.953803)">
    <ellipse
       id="path4112"
       transform="matrix(0.70455,0,0,0.602,15.976,20.077)"
       style="opacity:0.39607999;fill:url(#radialGradient24190)"
       cx="24.849752"
       cy="38.908627"
       rx="20.203051"
       ry="7.4751287" />
    <g
       id="g3545"
       transform="translate(-44,-0.99911)">
      <path
         id="path2744"
         d="m 83.481,43.251 c 0,1.676 -1.749,2.525 -3.226,2.949 -2.222,0.638 -4.005,0.541 -5.862,0 -1.55,-0.452 -2.932,-1.375 -2.932,-2.949 v -5.826 c 0,-1.886 1.369,-2.909 2.932,-2.909 l 5.213,-0.031 c 1.953,0 3.929,-1.999 3.929,-3.999 V 28.5 h 2.584 c 1.707,0 2.51,1.268 2.931,2.949 0.587,2.335 0.613,4.081 0,5.901 -0.592,1.768 -1.227,3.159 -2.931,3.159 h -2.638 -6.156 v -0.012 l 6.156,0.021 z"
         sodipodi:nodetypes="csscccccccsscccccc"
         style="fill:#f0e64a;fill-opacity:1;stroke:#a89f0e;stroke-opacity:1"
         inkscape:connector-curvature="0" />
      <g
         id="g3534"
         transform="translate(0.038609,19.855)">
        <path
           id="path3530"
           d="m 70.481,4.8948 c 0,-1.6766 1.749,-2.5257 3.226,-2.9492 2.221,-0.6385 4.004,-0.5408 5.861,0 1.551,0.4517 2.932,1.3747 2.932,2.9492 v 5.5312 c 0,1.592 -1.327,3.204 -2.932,3.204 h -5.461 c -1.533,0 -3.68,1.687 -3.68,3.687 v 2.328 h -2.584 c -1.707,0 -2.511,-1.268 -2.932,-2.949 -0.586,-2.335 -0.612,-4.081 0,-5.901 0.593,-1.7673 1.227,-3.1586 2.932,-3.1586 h 2.638 6.155 V 7.648 L 70.481,7.627 Z"
           sodipodi:nodetypes="csscccccccsscccccc"
           style="fill:#5e9930;fill-opacity:1;stroke:#3d631f;stroke-opacity:1"
           inkscape:connector-curvature="0" />
        <path
           id="path2734"
           d="m 72.281,4.4586 c 0,-0.6124 0.491,-1.1076 1.099,-1.1076 0.606,0 1.099,0.4952 1.099,1.1076 0,0.6102 -0.493,1.1054 -1.099,1.1054 -0.608,0 -1.099,-0.4952 -1.099,-1.1054 z"
           inkscape:connector-curvature="0"
           style="fill:#ffffff" />
      </g>
      <path
         id="path2736"
         d="m 79.523,43.618 c 0,-0.611 0.493,-1.106 1.099,-1.106 0.608,0 1.099,0.495 1.099,1.106 0,0.612 -0.491,1.107 -1.099,1.107 -0.606,0 -1.099,-0.495 -1.099,-1.107 z"
         inkscape:connector-curvature="0"
         style="fill:#ffffff" />
    </g>
  </g>
  <g
     id="g5715"
     transform="matrix(1.8181818,0,0,1.8181818,59.306818,0.5340006)">
    <rect
       style="fill:#00a4c4;fill-opacity:1"
       id="rect3998"
       y="13"
       x="-20"
       width="11"
       rx="2.0114901"
       height="11" />
    <path
       style="opacity:0.3;fill:#fcffff;fill-rule:evenodd"
       inkscape:connector-curvature="0"
       id="path4002"
       d="m -19,19 9,-0.0096 c 0,0 0,0 0,-2 C -10,14 -11,14 -14.5,14 c -3.5,0 -4.5,0 -4.5,3 0,2 0,2 0,2 z" />
    <text
       id="text5143"
       y="22.991171"
       x="-16.760908"
       style="font-style:normal;font-weight:normal;font-size:23.12124062px;line-height:1.25;font-family:sans-serif;letter-spacing:0px;word-spacing:0px;fill:#000000;fill-opacity:1;stroke:none;stroke-width:1.5764482"
       xml:space="preserve"><tspan
         style="font-style:normal;font-variant:normal;font-weight:bold;font-stretch:normal;font-size:12.61158562px;font-family:'Bookman Old Style';-inkscape-font-specification:'Bookman Old Style Bold';fill:#ffffff;fill-opacity:1;stroke-width:1.5764482"
         y="22.991171"
         x="-16.760908"
         id="tspan5141"
         sodipodi:role="line">i</tspan></text>
  </g>
</svg>
