<?xml version="1.0" encoding="UTF-8" standalone="no"?>
<svg
   xmlns:dc="http://purl.org/dc/elements/1.1/"
   xmlns:cc="http://creativecommons.org/ns#"
   xmlns:rdf="http://www.w3.org/1999/02/22-rdf-syntax-ns#"
   xmlns:svg="http://www.w3.org/2000/svg"
   xmlns="http://www.w3.org/2000/svg"
   xmlns:sodipodi="http://sodipodi.sourceforge.net/DTD/sodipodi-0.dtd"
   xmlns:inkscape="http://www.inkscape.org/namespaces/inkscape"
   enable-background="new 0 0 32 32"
   height="16"
   viewBox="0 0 16 16"
   width="16"
   version="1.1"
   id="svg6"
   sodipodi:docname="clear.svg"
   inkscape:version="0.92.4 (5da689c313, 2019-01-14)">
  <metadata
     id="metadata12">
    <rdf:RDF>
      <cc:Work
         rdf:about="">
        <dc:format>image/svg+xml</dc:format>
        <dc:type
           rdf:resource="http://purl.org/dc/dcmitype/StillImage" />
        <dc:title></dc:title>
      </cc:Work>
    </rdf:RDF>
  </metadata>
  <defs
     id="defs10" />
  <sodipodi:namedview
     pagecolor="#ffffff"
     bordercolor="#666666"
     borderopacity="1"
     objecttolerance="10"
     gridtolerance="10"
     guidetolerance="10"
     inkscape:pageopacity="0"
     inkscape:pageshadow="2"
     inkscape:window-width="1920"
     inkscape:window-height="1017"
     id="namedview8"
     showgrid="false"
     inkscape:zoom="7.375"
     inkscape:cx="4.007821"
     inkscape:cy="-2.0480448"
     inkscape:window-x="3832"
     inkscape:window-y="-8"
     inkscape:window-maximized="1"
     inkscape:current-layer="svg6" />
  <g
     id="g4528"
     transform="matrix(0.5,0,0,0.5,0,8)">
    <path
       inkscape:connector-curvature="0"
       style="opacity:0.75;fill:#ff0000;fill-opacity:1"
       id="path2"
       d="M 16,-15 C 7.715,-15 1,-8.284 1,0 1,8.283 7.715,15 16,15 24.283,15 31,8.283 31,0 31,-8.284 24.283,-15 16,-15 Z m 7.76,19.932 c 0.781,0.781 0.781,2.047 0,2.828 -0.391,0.391 -0.902,0.586 -1.414,0.586 -0.512,0 -1.023,-0.195 -1.414,-0.586 L 16,2.828 11.069,7.76 C 10.679,8.151 10.167,8.346 9.655,8.346 9.143,8.346 8.631,8.15 8.241,7.76 7.46,6.979 7.46,5.713 8.241,4.932 L 13.172,0 8.241,-4.931 c -0.781,-0.781 -0.781,-2.047 0,-2.828 0.78,-0.781 2.048,-0.781 2.828,0 L 16,-2.828 20.932,-7.759 c 0.781,-0.781 2.047,-0.781 2.828,0 0.781,0.781 0.781,2.047 0,2.828 L 18.828,0 Z" />
    <path
       style="opacity:0.9;fill:#ffffff"
       inkscape:connector-curvature="0"
       id="path4"
       d="m 18.828,0 4.932,-4.931 c 0.781,-0.781 0.781,-2.047 0,-2.828 -0.781,-0.781 -2.047,-0.781 -2.828,0 L 16,-2.828 11.069,-7.759 c -0.78,-0.781 -2.048,-0.781 -2.828,0 -0.781,0.781 -0.781,2.047 0,2.828 L 13.172,0 8.241,4.932 c -0.781,0.781 -0.781,2.047 0,2.828 0.39,0.391 0.902,0.586 1.414,0.586 0.512,0 1.024,-0.195 1.414,-0.586 L 16,2.828 20.932,7.76 c 0.391,0.391 0.902,0.586 1.414,0.586 0.512,0 1.023,-0.195 1.414,-0.586 0.781,-0.781 0.781,-2.047 0,-2.828 z" />
  </g>
</svg>
