<?xml version="1.0" encoding="UTF-8" standalone="no"?>
<svg
   xmlns:dc="http://purl.org/dc/elements/1.1/"
   xmlns:cc="http://creativecommons.org/ns#"
   xmlns:rdf="http://www.w3.org/1999/02/22-rdf-syntax-ns#"
   xmlns:svg="http://www.w3.org/2000/svg"
   xmlns="http://www.w3.org/2000/svg"
   xmlns:sodipodi="http://sodipodi.sourceforge.net/DTD/sodipodi-0.dtd"
   xmlns:inkscape="http://www.inkscape.org/namespaces/inkscape"
   height="24"
   width="24"
   version="1.1"
   id="svg5893"
   sodipodi:docname="icon.svg"
   inkscape:version="0.92.4 (5da689c313, 2019-01-14)"
   inkscape:export-filename="C:\Dvp\QGIS_PLUGINS\layer_tree_icons\icon.png"
   inkscape:export-xdpi="256"
   inkscape:export-ydpi="256">
  <metadata
     id="metadata5899">
    <rdf:RDF>
      <cc:Work
         rdf:about="">
        <dc:format>image/svg+xml</dc:format>
        <dc:type
           rdf:resource="http://purl.org/dc/dcmitype/StillImage" />
        <dc:title />
      </cc:Work>
    </rdf:RDF>
  </metadata>
  <defs
     id="defs5897">
    <linearGradient
       gradientTransform="matrix(0.18111496,0,0,0.18205984,-14.619055,3.415905)"
       id="a"
       gradientUnits="userSpaceOnUse"
       x1="55.549"
       x2="110.149"
       y1="77.07"
       y2="131.853">
      <stop
         offset="0"
         stop-color="#387eb8"
         id="stop4704" />
      <stop
         offset="1"
         stop-color="#366994"
         id="stop4706" />
    </linearGradient>
    <linearGradient
       gradientTransform="matrix(0.18111496,0,0,0.18205984,-14.619055,3.415905)"
       id="b"
       gradientUnits="userSpaceOnUse"
       x1="89.137001"
       x2="147.77699"
       y1="111.921"
       y2="168.101">
      <stop
         offset="0"
         stop-color="#ffe052"
         id="stop4699" />
      <stop
         offset="1"
         stop-color="#ffc331"
         id="stop4701" />
    </linearGradient>
    <linearGradient
       id="b-0"
       x1="305"
       x2="335"
       y1="64.300003"
       y2="81.900002"
       gradientTransform="matrix(0.0448,0.854,0.85,-0.0445,-57.1,-251)"
       gradientUnits="userSpaceOnUse">
      <stop
         stop-color="#d3d7cf"
         offset="0"
         id="stop6496" />
      <stop
         stop-color="#babdb6"
         offset=".183"
         id="stop6498" />
      <stop
         stop-color="#fff"
         offset=".319"
         id="stop6500" />
      <stop
         stop-color="#babdb6"
         offset=".876"
         id="stop6502" />
      <stop
         stop-color="#eeeeec"
         offset="1"
         id="stop6504" />
    </linearGradient>
    <linearGradient
       id="a-5"
       x1="97.400002"
       x2="90.199997"
       y1="35.200001"
       y2="35.099998"
       gradientTransform="matrix(-0.554,0.615,0.344,0.311,55.9,-52.8)"
       gradientUnits="userSpaceOnUse">
      <stop
         stop-color="#f8e27e"
         offset="0"
         id="stop6491" />
      <stop
         stop-color="#e3d189"
         offset="1"
         id="stop6493" />
    </linearGradient>
  </defs>
  <sodipodi:namedview
     pagecolor="#ffffff"
     bordercolor="#666666"
     borderopacity="1"
     objecttolerance="10"
     gridtolerance="10"
     guidetolerance="10"
     inkscape:pageopacity="0"
     inkscape:pageshadow="2"
     inkscape:window-width="1796"
     inkscape:window-height="749"
     id="namedview5895"
     showgrid="false"
     inkscape:zoom="8"
     inkscape:cx="8.3638943"
     inkscape:cy="12.636026"
     inkscape:window-x="0"
     inkscape:window-y="0"
     inkscape:window-maximized="0"
     inkscape:current-layer="g5891" />
  <g
     transform="translate(0 -8)"
     id="g5891">
    <g
       id="g5911"
       transform="matrix(1.1999268,0,0,1.2001512,7.777556,-10.841617)">
      <path
         id="path4711"
         overflow="visible"
         d="m 3.447087,15.69937 c -5.075906,0 -4.762205,2.211024 -4.762205,2.211024 l 0.0076,1.783937 h 4.845354 v 1.001575 h -6.769134 c 0,0 -3.250394,-0.173859 -3.250394,4.973858 0,5.151496 2.834646,4.966299 2.834646,4.966299 h 1.693228 v -2.388661 c 0,0 -0.09071,-2.849764 2.793071,-2.849764 h 4.8 c 0,0 2.702362,0.04535 2.702362,-2.622992 v -4.410709 c 0,0 0.411969,-2.664567 -4.894488,-2.664567 z m -2.672126,1.538268 c 0.48378,0 0.869291,0.393071 0.869291,0.87685 a 0.87307088,0.87307088 0 1 1 -1.738582,0 c 0,-0.483779 0.389291,-0.87685 0.869291,-0.87685 z"
         style="overflow:visible;fill:url(#a);stroke-width:3.77952766"
         inkscape:connector-curvature="0" />
      <path
         id="path4713"
         overflow="visible"
         d="m 3.590709,35.693071 c 5.075906,0 4.762205,-2.211024 4.762205,-2.211024 l -0.0076,-2.290393 H 3.5 V 30.5 h 6.769134 c 0,0 3.250394,0.370394 3.250394,-4.777323 0,-5.151496 -2.834646,-4.966299 -2.834646,-4.966299 H 8.991654 v 2.388661 c 0,0 0.09071,2.849764 -2.793071,2.849764 h -4.8 c 0,0 -2.702362,-0.04157 -2.702362,2.622992 v 4.410709 c 0,0 -0.411969,2.668347 4.894488,2.668347 z m 2.672126,-1.538268 a 0.87307088,0.87307088 0 0 1 -0.869291,-0.87685 0.87307088,0.87307088 0 1 1 1.738582,0 0.87307088,0.87307088 0 0 1 -0.869291,0.87685 z"
         style="overflow:visible;fill:url(#b);stroke-width:3.77952766"
         inkscape:connector-curvature="0" />
    </g>
    <g
       transform="matrix(0.83106039,0,0,0.83106039,0.43365971,13.817063)"
       id="g7070">
      <path
         style="fill:url(#b-0);fill-rule:evenodd;stroke:#404040"
         inkscape:connector-curvature="0"
         id="path6509"
         d="M 0.516,7.19 C 0.32,6.384 1.077,6.846 1.35,7.043 c 1.1,0.534 2.19,1.1 3.29,1.62 0.733,0.121 1.3,-0.537 1.68,-1.07 0.527,-0.851 1,-1.91 0.701,-2.93 C 6.834,4.156 6.247,4.058 5.831,3.806 4.811,3.299 3.781,2.796 2.771,2.286 2.7286,1.767 3.574,1.722 3.981,1.628 c 1.72,-0.272 3.68,-0.0409 4.97,1.23 1.06,1.03 1.53,2.59 1.35,4.04 0.465,1.25 1.16,2.43 2.16,3.32 l -2.62,2.74 c -0.871,-0.798 -1.89,-1.44 -3.01,-1.82 -1.48,0.49 -3.16,0.123 -4.29,-0.925 -0.889,-0.799 -1.62,-1.89 -2.02,-3.02 z" />
      <path
         style="fill:#f0f3f2;fill-rule:evenodd"
         inkscape:connector-curvature="0"
         id="path6511"
         d="M 0.827,7.18 C 0.833,7.196 0.853,7.185 0.853,7.176 l 3.53,1.74 c 0.475,0.235 1.01,0.02 1.45,-0.317 0.442,-0.34 0.86,-0.852 1.17,-1.51 C 7.316,6.433 7.447,5.759 7.437,5.189 7.427,4.629 7.24,4.109 6.782,3.889 L 3.232,2.149 C 3.23,2.137 3.232,2.119 3.23,2.121 3.213,2.141 3.245,2.129 3.257,2.117 c 1.5,-0.434 3.27,-0.343 4.46,0.248 1.63,0.81 2.49,2.63 2.26,4.49 -0.23,1.85 -1.74,3.5 -3.23,3.97 -0.966,0.3 -2.02,0.25 -2.97,-0.22 -1.19,-0.588 -2.35,-1.96 -2.95,-3.43 z" />
      <path
         style="fill:url(#a-5);stroke:#404040;stroke-linejoin:round"
         inkscape:connector-curvature="0"
         id="path6513"
         d="m 12.2,9.64 8.593436,6.553436 c 0.668,0.604 0.331,2.04 -0.745,3.23 -1.07,1.19 -2.47,1.68 -3.13,1.08 L 9.325,12.91 12.235,9.68 Z m 5.053436,7.593436 c -0.533,0.594 -0.508,1.5 -0.127,1.84 0.377,0.343 1.3,0.247 1.83,-0.346 0.533,-0.594 0.481,-1.47 0.103,-1.81 -0.379,-0.342 -1.28,-0.276 -1.81,0.319 z"
         sodipodi:nodetypes="ccccccccccccc" />
      <path
         style="fill:#ffffff;stroke:#404040"
         inkscape:connector-curvature="0"
         id="path6515"
         d="m 10,12.8 2.46,-2.42 0.437,0.348 -2.46,2.42 z" />
    </g>
  </g>
</svg>
